<svg width="246" height="56" viewBox="0 0 246 56" fill="none" xmlns="http://www.w3.org/2000/svg">
<path d="M237.247 55.1337H237.994V49.683H239.762V48.9772H235.477V49.683H237.247V55.1337Z" fill="#606161"/>
<path d="M241.196 50.1314L242.683 55.1337H243.423L244.91 50.1314V55.1337H245.527V48.9772H244.628L243.079 54.2352L241.479 48.9772H240.449V55.1337H241.196V50.1314Z" fill="#606161"/>
<path d="M118.395 40.385V14.9277C118.395 9.73433 120.568 6.01531 125.204 6.01531H153.798C153.973 6.01531 154.141 5.82167 154.141 5.62973V0.564593C154.141 0.52043 154.13 0.477116 154.114 0.435501H119.152C111.574 1.50985 107.872 7.39964 107.872 14.9277V40.3842C107.872 45.5776 105.638 49.2974 101.064 49.2974H70.8669C70.6955 49.2974 70.5234 49.4257 70.5234 49.6822V54.7481C70.5234 54.9579 70.6392 55.1184 70.7747 55.1719H105.059C113.995 54.9104 118.395 48.5484 118.395 40.385Z" fill="#606161"/>
<path d="M0.919185 55.1728H10.9587C11.0943 55.1193 11.21 54.9588 11.21 54.749V38.5251C11.21 33.3317 13.8404 29.7401 17.6725 29.7401H59.0255C68.3484 29.7401 72.8675 23.328 72.8675 14.9277C72.8675 7.39964 69.1686 1.50985 61.5866 0.435501H0.733365C0.715849 0.477965 0.686151 0.511088 0.686151 0.564593V5.62973C0.686151 5.88621 0.800381 6.01531 1.02885 6.01531H55.5361C60.1694 6.01531 62.3428 9.73433 62.3428 14.9277C62.3428 20.1219 60.1694 23.841 55.5361 23.841H12.411C5.71924 23.841 0.686151 30.1902 0.686151 38.5251V54.749C0.68539 54.9588 0.766114 55.1184 0.919185 55.1728Z" fill="#606161"/>
<path d="M153.973 49.2983H208.881C209.05 49.2983 209.164 49.4265 209.164 49.5548V54.749C209.164 55.0055 209.339 55.1337 209.507 55.1337H219.404C219.58 55.1337 219.746 55.0055 219.746 54.749V49.683C219.746 49.4902 219.921 49.2983 220.09 49.2983H229.926C230.155 49.2983 230.269 49.1055 230.269 48.9144V43.7839C230.269 43.5911 230.155 43.3991 229.926 43.3991H220.09C219.921 43.3991 219.746 43.2064 219.746 43.0144V6.0153C219.746 2.9961 218.74 1.07331 217.049 0.435501H214.185C213.293 0.691136 212.323 1.1489 211.282 1.84616L152.143 42.5651C149.856 44.1677 149.054 45.9623 149.627 47.3092C150.083 48.4643 151.396 49.2983 153.973 49.2983ZM162.551 42.5014L208.363 10.8885C208.652 10.632 209.225 10.6966 209.225 11.4015V43.0144C209.225 43.2072 209.05 43.3991 208.881 43.3991H162.834C162.437 43.3991 162.261 43.2717 162.208 43.1427C162.146 42.8862 162.261 42.6934 162.551 42.5014Z" fill="#606161"/>
</svg>
