<svg width="164" height="40" viewBox="0 0 164 40" fill="none" xmlns="http://www.w3.org/2000/svg">
<path fill-rule="evenodd" clip-rule="evenodd" d="M82.9271 0.599411C77.6595 0.59946 73.3894 5.29454 73.3893 11.0862V28.9802C73.3893 32.2543 70.9753 34.9084 67.9975 34.9083H49.6384V39.3511H71.4736C76.7412 39.3511 81.0114 34.6558 81.0113 28.864V10.9701C81.0113 7.69601 83.4253 5.04186 86.4031 5.04196L105.104 5.04194V0.599411H82.9271Z" fill="#606161"/>
<path fill-rule="evenodd" clip-rule="evenodd" d="M0.644577 0.599411V5.04194H38.994C42.0505 5.04196 44.5282 7.76628 44.5282 11.1269C44.5282 14.4875 42.0505 17.2119 38.994 17.2119H10.1823C4.91477 17.2119 0.644621 21.907 0.644577 27.6987V39.3511H8.2665V27.5828C8.26654 24.3087 10.6806 21.6546 13.6584 21.6547H42.5755C47.8635 21.6546 52.1503 16.9412 52.1502 11.1269C52.1501 5.31275 47.8634 0.599452 42.5755 0.599411H0.644577Z" fill="#606161"/>
<path fill-rule="evenodd" clip-rule="evenodd" d="M112.449 0.599411V15.0694C112.449 18.7063 115.13 21.6547 118.438 21.6547H150.351C153.679 21.6547 156.378 24.6215 156.378 28.2814C156.378 31.9414 153.679 34.9083 150.351 34.9083H112.449V39.3511H153.932C159.493 39.3511 164 34.3951 164 28.2816C164 22.168 159.493 17.2119 153.932 17.2119H122.478C121.149 17.2118 120.071 16.0269 120.071 14.5653V5.04194H162.619V0.599411H112.449Z" fill="#606161"/>
</svg>
