<svg width="192" height="39" viewBox="0 0 192 39" fill="none" xmlns="http://www.w3.org/2000/svg">
<path d="M122.899 0.022753H97.7159C89.9563 0.022753 86.1404 4.5744 86.1404 10.4915V28.4402C86.1404 32.1043 84.3165 34.7366 80.4606 34.7366H58.4296C58.2696 34.7366 58.1496 34.8656 58.1496 35.0021V38.5676C58.1496 38.7193 58.2296 38.8103 58.3896 38.8103H83.2685C91.0282 38.8103 94.868 34.2815 94.868 28.3643V10.4309C94.868 6.75919 96.668 4.11923 100.548 4.11923H122.803C122.963 4.11923 123.123 4.01303 123.123 3.86889V0.265511C123.123 0.11379 122.963 0 122.803 0L122.899 0.022753ZM48.766 0.022753H0.303987C0.127995 0.022753 0 0.151715 0 0.288264V3.90682C0 4.05854 0.127995 4.17992 0.303987 4.17992H45.8541C49.6939 4.17992 51.5339 6.81229 51.5339 10.4764C51.5339 14.1404 49.7099 16.7728 45.8541 16.7728H9.82359C4.22382 16.7728 0.00799967 21.2258 0.00799967 27.1354V38.6131C0.00799967 38.7648 0.167993 38.8938 0.327986 38.8938H8.56764C8.72764 38.8938 8.88763 38.7724 8.88763 38.6131V27.1354C8.88763 23.4941 11.1275 20.9148 14.3274 20.9148H48.798C56.5576 20.9148 60.3495 16.4011 60.3495 10.484C60.3495 4.58199 56.5656 0.015171 48.814 0.015171L48.766 0.022753ZM188.392 18.9728C188.272 18.859 188.272 18.6693 188.392 18.5479C190.792 16.6514 191.992 13.7915 191.992 10.4915C191.992 4.58957 188.2 0.022753 180.424 0.022753H131.97C131.811 0.022753 131.683 0.159303 131.683 0.311025V3.91441C131.683 4.06613 131.843 4.21785 132.002 4.21785H177.601C181.44 4.21785 183.32 6.87298 183.32 10.5143C183.32 14.1556 181.48 16.8107 177.625 16.8107H132.026C131.867 16.8107 131.739 16.9625 131.739 17.1142V20.7555C131.739 20.9072 131.866 21.0134 132.034 21.0134H177.633C182.672 21.0665 183.312 25.7168 183.312 28.0685V28.5236C183.312 32.2029 181.472 34.8428 177.633 34.8428H132.034C131.874 34.8428 131.747 34.9566 131.747 35.1008V38.7193C131.747 38.871 131.866 39 132.034 39H180.432C188.216 39 192 34.107 192 28.5312V28.0988C192 24.5334 190.8 21.15 188.4 19.0714L188.392 18.9728Z" fill="#606161"/>
</svg>
